<svg t="1597137431746" class="icon" viewBox="0 0 1024 1024" version="1.1" xmlns="http://www.w3.org/2000/svg" p-id="11806" width="32" height="32"><path d="M550.64576 211.34848H478.85824V81.92h71.78752v129.42848zM204.2368 345.1392L112.64 248.07936l52.07552-49.664 91.5968 97.06496z m613.05856 4.87936l-51.42016-50.37056 94.06464-97.06496L911.36 252.9536z m34.93888 519.86944v-263.808c0-189.3888-153.24672-343.46496-341.61152-343.46496s-341.6064 154.08128-341.6064 343.47008V869.888H116.0448V942.08h786.944v-72.192h-50.74432zM485.67808 469.26336a0.19968 0.19968 0 0 0 0 0.0256A137.472 137.472 0 0 0 376.832 576.04608v0.16896c-0.30208 1.42848-0.47104 2.90304-0.72192 4.352-2.01728 8.0128-9.59488 23.88992-38.03136 23.88992-22.2976 0-29.29664-14.74048-31.27808-26.94144a55.69024 55.69024 0 0 1 0.99328-21.70368 209.9712 209.9712 0 0 1 144.44544-152.6272 57.40032 57.40032 0 0 1 13.28128-2.24768c14.336-0.71168 42.37824 1.43872 45.12768 28.7744 0.83968 33.39776-23.56224 39.28064-24.97024 39.552z" fill="#d81e06" p-id="11807"></path></svg>